# xmcd
# 
# Track frame offsets:
#     150
#     20410
#     35435
#     61087
#     75415
#     85342
#     102730
#     124455
#     131630
#     146085
#     161530
#     181895
#     197495
#     213222
#     229715
#     242715
#     253612
# 
# Disc length: 3669
# 
# Revision: 10
# Processed by: cddbd v1.5.2PL0 Copyright (c) Steve Scherf et al.
# Submitted via: fre:ac v1.0.31
# 
DISCID=e60e5311
DTITLE=Ronan Hardiman - Michael Flatley's Lord Of The Dance
DYEAR=1996
DGENRE=Soundtrack
TTITLE0=Cry Of The Celts
TTITLE1=Suil A Ruin
TTITLE2=Celtic Dream
TTITLE3=Warriors
TTITLE4=Gypsy
TTITLE5=Breakout
TTITLE6=The Lord Of The Dance
TTITLE7=Spirit In The New World
TTITLE8=Fiery Nights
TTITLE9=Lament
TTITLE10=Siamsa
TTITLE11=Our Wedding Day
TTITLE12=Stolen Kiss
TTITLE13=Nightmare
TTITLE14=Victory
TTITLE15=Cry Of The Celts
TTITLE16=The Lord Of The Dance
EXTD=
EXTT0=
EXTT1=
EXTT2=
EXTT3=
EXTT4=
EXTT5=
EXTT6=
EXTT7=
EXTT8=
EXTT9=
EXTT10=
EXTT11=
EXTT12=
EXTT13=
EXTT14=
EXTT15=
EXTT16=
PLAYORDER=
